<svg width="660" height="399" viewBox="0 0 660 399" fill="none" xmlns="http://www.w3.org/2000/svg">
<g opacity="0.07">
<path d="M602.387 -117.35C542.929 -204.094 443.11 -261.001 330 -261.001C147.746 -261.001 0 -113.255 0 68.9993C0 95.5144 3.1273 121.299 9.03288 146.005L177.082 -22.0439C193.191 -38.1531 219.309 -38.1531 235.418 -22.0439L371.25 113.788L602.387 -117.35Z" fill="#8794BA"/>
<path d="M641.609 -39.8988L400.418 201.292C384.309 217.402 358.191 217.402 342.082 201.292L206.25 65.4606L41.814 229.897C98.2657 330.792 206.168 398.999 330 398.999C512.254 398.999 660 251.253 660 68.9993C660 30.8407 653.523 -5.80507 641.609 -39.8988Z" fill="#8794BA"/>
</g>
</svg>
