<svg width="138" height="150" viewBox="0 0 138 150" fill="none" xmlns="http://www.w3.org/2000/svg">
<path d="M135 75C135 115.005 105.22 147 69 147C32.7798 147 3 115.005 3 75C3 34.9951 32.7798 3 69 3C105.22 3 135 34.9951 135 75Z" stroke="black" stroke-width="6"/>
<path d="M99.2746 111.264C100.578 109.333 101.468 106.733 101.468 102.987C101.468 94.2089 99.4036 85.6169 94.6411 79.3247C90.0241 73.2247 82.3108 68.5415 69.4937 68.5415C56.6825 68.5415 49.2171 73.2159 44.8152 79.2459C40.2447 85.5067 38.34 94.1018 38.34 102.987C38.34 106.789 39.2068 109.418 40.4612 111.349C41.7455 113.326 43.7093 114.989 46.4857 116.325C52.2189 119.082 60.3776 119.963 69.4937 119.963C78.6012 119.963 86.9973 119.086 92.9639 116.3C95.8664 114.945 97.9299 113.257 99.2746 111.264ZM103.688 102.987C103.688 107.304 102.646 110.531 100.981 112.999C99.3051 115.482 96.8588 117.401 93.7319 118.861C87.3689 121.831 78.6358 122.698 69.4937 122.698C60.3465 122.698 51.8384 121.829 45.697 118.876C42.6855 117.427 40.3378 115.521 38.7281 113.043C37.1237 110.573 36.1201 107.331 36.1201 102.987C36.1201 93.6895 38.1083 84.3586 43.1666 77.4295C48.1108 70.6568 56.2545 65.8065 69.4937 65.8065C82.7395 65.8065 91.11 70.6643 96.2621 77.4712C101.516 84.4126 103.688 93.7404 103.688 102.987Z" stroke="black" stroke-width="6"/>
<path d="M88.8921 45.7734C88.8921 57.0209 80.1811 65.9211 69.6985 65.9211C59.2159 65.9211 50.5049 57.0209 50.5049 45.7734C50.5049 34.5259 59.2159 25.6257 69.6985 25.6257C80.1811 25.6257 88.8921 34.5259 88.8921 45.7734Z" stroke="black" stroke-width="6"/>
</svg>
