<svg width="17" height="17" viewBox="0 0 17 17" fill="none" xmlns="http://www.w3.org/2000/svg">
<path d="M13.1325 6.37503L6.29003 2.45086C5.91977 2.23706 5.49953 2.12506 5.07197 2.12623C4.64442 2.1274 4.2248 2.24171 3.85572 2.45755C3.48664 2.67338 3.18126 2.98305 2.9706 3.3551C2.75993 3.72716 2.65149 4.14834 2.65628 4.57586V12.4525C2.65628 13.095 2.91151 13.7112 3.36581 14.1655C3.82012 14.6198 4.43629 14.875 5.07878 14.875C5.50409 14.8743 5.92176 14.762 6.29003 14.5492L13.1325 10.625C13.5002 10.4122 13.8054 10.1065 14.0177 9.7385C14.2299 9.3705 14.3416 8.95317 14.3416 8.52836C14.3416 8.10356 14.2299 7.68622 14.0177 7.31822C13.8054 6.95022 13.5002 6.64449 13.1325 6.4317V6.37503ZM12.4242 9.34295L5.5817 13.3238C5.42833 13.4107 5.25506 13.4564 5.07878 13.4564C4.9025 13.4564 4.72923 13.4107 4.57586 13.3238C4.42293 13.2355 4.29594 13.1085 4.20766 12.9555C4.11938 12.8026 4.07292 12.6291 4.07295 12.4525V4.54753C4.07292 4.37094 4.11938 4.19745 4.20766 4.04451C4.29594 3.89158 4.42293 3.76457 4.57586 3.67628C4.72986 3.59068 4.90262 3.54445 5.07878 3.5417C5.25482 3.54531 5.42738 3.59149 5.5817 3.67628L12.4242 7.62878C12.5772 7.71704 12.7042 7.84402 12.7926 7.99696C12.8809 8.1499 12.9274 8.32341 12.9274 8.50003C12.9274 8.67665 12.8809 8.85015 12.7926 9.0031C12.7042 9.15604 12.5772 9.28302 12.4242 9.37128V9.34295Z" fill="white"/>
</svg>
