<svg width="24" height="24" viewBox="0 0 24 24" fill="none" xmlns="http://www.w3.org/2000/svg">
<path d="M19.89 9.55C19.8069 9.38508 19.6798 9.2464 19.5227 9.14932C19.3656 9.05224 19.1847 9.00056 19 9H14V3C14.0107 2.78068 13.949 2.56393 13.8243 2.3832C13.6996 2.20247 13.5188 2.0678 13.31 2C13.1092 1.93394 12.8927 1.9332 12.6915 1.99788C12.4902 2.06256 12.3147 2.18933 12.19 2.36L4.19 13.36C4.08976 13.5049 4.02958 13.6736 4.01553 13.8492C4.00148 14.0248 4.03407 14.201 4.11 14.36C4.17992 14.5417 4.30139 14.6991 4.45949 14.8128C4.61759 14.9265 4.80545 14.9916 5 15H10V21C10.0002 21.2109 10.067 21.4163 10.1909 21.5869C10.3148 21.7575 10.4895 21.8846 10.69 21.95C10.7905 21.9811 10.8948 21.998 11 22C11.1578 22.0004 11.3134 21.9635 11.4542 21.8922C11.595 21.821 11.7169 21.7174 11.81 21.59L19.81 10.59C19.9177 10.4408 19.9822 10.2648 19.9963 10.0813C20.0105 9.89776 19.9737 9.71392 19.89 9.55ZM12 17.92V14C12 13.7348 11.8946 13.4804 11.7071 13.2929C11.5196 13.1054 11.2652 13 11 13H7L12 6.08V10C12 10.2652 12.1054 10.5196 12.2929 10.7071C12.4804 10.8946 12.7348 11 13 11H17L12 17.92Z" fill="black"/>
</svg>
