<svg id="visual" viewBox="0 0 1536 722" width="1536" height="722" xmlns="http://www.w3.org/2000/svg" xmlns:xlink="http://www.w3.org/1999/xlink" version="1.1"><path d="M0 496L28.5 514.8C57 533.7 114 571.3 170.8 595.8C227.7 620.3 284.3 631.7 341.2 625.7C398 619.7 455 596.3 512 565C569 533.7 626 494.3 682.8 467C739.7 439.7 796.3 424.3 853.2 455C910 485.7 967 562.3 1024 568.8C1081 575.3 1138 511.7 1194.8 495C1251.7 478.3 1308.3 508.7 1365.2 539.2C1422 569.7 1479 600.3 1507.5 615.7L1536 631L1536 0L1507.5 0C1479 0 1422 0 1365.2 0C1308.3 0 1251.7 0 1194.8 0C1138 0 1081 0 1024 0C967 0 910 0 853.2 0C796.3 0 739.7 0 682.8 0C626 0 569 0 512 0C455 0 398 0 341.2 0C284.3 0 227.7 0 170.8 0C114 0 57 0 28.5 0L0 0Z" fill="#1c1cf0"></path><path d="M0 582L28.5 572C57 562 114 542 170.8 539.5C227.7 537 284.3 552 341.2 526.2C398 500.3 455 433.7 512 426.5C569 419.3 626 471.7 682.8 471.7C739.7 471.7 796.3 419.3 853.2 408.8C910 398.3 967 429.7 1024 456.2C1081 482.7 1138 504.3 1194.8 526.7C1251.7 549 1308.3 572 1365.2 568.7C1422 565.3 1479 535.7 1507.5 520.8L1536 506L1536 0L1507.5 0C1479 0 1422 0 1365.2 0C1308.3 0 1251.7 0 1194.8 0C1138 0 1081 0 1024 0C967 0 910 0 853.2 0C796.3 0 739.7 0 682.8 0C626 0 569 0 512 0C455 0 398 0 341.2 0C284.3 0 227.7 0 170.8 0C114 0 57 0 28.5 0L0 0Z" fill="#8100d6"></path><path d="M0 352L28.5 376.2C57 400.3 114 448.7 170.8 447.8C227.7 447 284.3 397 341.2 365.3C398 333.7 455 320.3 512 352C569 383.7 626 460.3 682.8 479.2C739.7 498 796.3 459 853.2 423.2C910 387.3 967 354.7 1024 355.8C1081 357 1138 392 1194.8 401.2C1251.7 410.3 1308.3 393.7 1365.2 384.3C1422 375 1479 373 1507.5 372L1536 371L1536 0L1507.5 0C1479 0 1422 0 1365.2 0C1308.3 0 1251.7 0 1194.8 0C1138 0 1081 0 1024 0C967 0 910 0 853.2 0C796.3 0 739.7 0 682.8 0C626 0 569 0 512 0C455 0 398 0 341.2 0C284.3 0 227.7 0 170.8 0C114 0 57 0 28.5 0L0 0Z" fill="#aa00bc"></path><path d="M0 281L28.5 302.3C57 323.7 114 366.3 170.8 390.7C227.7 415 284.3 421 341.2 417.2C398 413.3 455 399.7 512 374.5C569 349.3 626 312.7 682.8 324.2C739.7 335.7 796.3 395.3 853.2 419C910 442.7 967 430.3 1024 413C1081 395.7 1138 373.3 1194.8 351.2C1251.7 329 1308.3 307 1365.2 326.3C1422 345.7 1479 406.3 1507.5 436.7L1536 467L1536 0L1507.5 0C1479 0 1422 0 1365.2 0C1308.3 0 1251.7 0 1194.8 0C1138 0 1081 0 1024 0C967 0 910 0 853.2 0C796.3 0 739.7 0 682.8 0C626 0 569 0 512 0C455 0 398 0 341.2 0C284.3 0 227.7 0 170.8 0C114 0 57 0 28.5 0L0 0Z" fill="#c200a3"></path><path d="M0 254L28.5 266.7C57 279.3 114 304.7 170.8 325.7C227.7 346.7 284.3 363.3 341.2 370.5C398 377.7 455 375.3 512 363.7C569 352 626 331 682.8 341C739.7 351 796.3 392 853.2 409.8C910 427.7 967 422.3 1024 393.2C1081 364 1138 311 1194.8 293.8C1251.7 276.7 1308.3 295.3 1365.2 306.2C1422 317 1479 320 1507.5 321.5L1536 323L1536 0L1507.5 0C1479 0 1422 0 1365.2 0C1308.3 0 1251.7 0 1194.8 0C1138 0 1081 0 1024 0C967 0 910 0 853.2 0C796.3 0 739.7 0 682.8 0C626 0 569 0 512 0C455 0 398 0 341.2 0C284.3 0 227.7 0 170.8 0C114 0 57 0 28.5 0L0 0Z" fill="#d1008d"></path><path d="M0 332L28.5 311.2C57 290.3 114 248.7 170.8 247C227.7 245.3 284.3 283.7 341.2 290.7C398 297.7 455 273.3 512 269.3C569 265.3 626 281.7 682.8 292.3C739.7 303 796.3 308 853.2 301.7C910 295.3 967 277.7 1024 272C1081 266.3 1138 272.7 1194.8 266.8C1251.7 261 1308.3 243 1365.2 236.8C1422 230.7 1479 236.3 1507.5 239.2L1536 242L1536 0L1507.5 0C1479 0 1422 0 1365.2 0C1308.3 0 1251.7 0 1194.8 0C1138 0 1081 0 1024 0C967 0 910 0 853.2 0C796.3 0 739.7 0 682.8 0C626 0 569 0 512 0C455 0 398 0 341.2 0C284.3 0 227.7 0 170.8 0C114 0 57 0 28.5 0L0 0Z" fill="#d8007a"></path><path d="M0 312L28.5 305.3C57 298.7 114 285.3 170.8 268C227.7 250.7 284.3 229.3 341.2 238C398 246.7 455 285.3 512 303C569 320.7 626 317.3 682.8 308.5C739.7 299.7 796.3 285.3 853.2 265.7C910 246 967 221 1024 225.7C1081 230.3 1138 264.7 1194.8 274.7C1251.7 284.7 1308.3 270.3 1365.2 265.7C1422 261 1479 266 1507.5 268.5L1536 271L1536 0L1507.5 0C1479 0 1422 0 1365.2 0C1308.3 0 1251.7 0 1194.8 0C1138 0 1081 0 1024 0C967 0 910 0 853.2 0C796.3 0 739.7 0 682.8 0C626 0 569 0 512 0C455 0 398 0 341.2 0C284.3 0 227.7 0 170.8 0C114 0 57 0 28.5 0L0 0Z" fill="#dc0069"></path><path d="M0 277L28.5 276.2C57 275.3 114 273.7 170.8 273.2C227.7 272.7 284.3 273.3 341.2 259.2C398 245 455 216 512 218.3C569 220.7 626 254.3 682.8 271.7C739.7 289 796.3 290 853.2 269C910 248 967 205 1024 191.7C1081 178.3 1138 194.7 1194.8 201.3C1251.7 208 1308.3 205 1365.2 196C1422 187 1479 172 1507.5 164.5L1536 157L1536 0L1507.5 0C1479 0 1422 0 1365.2 0C1308.3 0 1251.7 0 1194.8 0C1138 0 1081 0 1024 0C967 0 910 0 853.2 0C796.3 0 739.7 0 682.8 0C626 0 569 0 512 0C455 0 398 0 341.2 0C284.3 0 227.7 0 170.8 0C114 0 57 0 28.5 0L0 0Z" fill="#dd0058"></path><path d="M0 127L28.5 134.2C57 141.3 114 155.7 170.8 163.3C227.7 171 284.3 172 341.2 182.5C398 193 455 213 512 218.8C569 224.7 626 216.3 682.8 196.8C739.7 177.3 796.3 146.7 853.2 134.5C910 122.3 967 128.7 1024 133.5C1081 138.3 1138 141.7 1194.8 144.2C1251.7 146.7 1308.3 148.3 1365.2 153C1422 157.7 1479 165.3 1507.5 169.2L1536 173L1536 0L1507.5 0C1479 0 1422 0 1365.2 0C1308.3 0 1251.7 0 1194.8 0C1138 0 1081 0 1024 0C967 0 910 0 853.2 0C796.3 0 739.7 0 682.8 0C626 0 569 0 512 0C455 0 398 0 341.2 0C284.3 0 227.7 0 170.8 0C114 0 57 0 28.5 0L0 0Z" fill="#dd0045"></path><path d="M0 82L28.5 87.7C57 93.3 114 104.7 170.8 119.8C227.7 135 284.3 154 341.2 156.3C398 158.7 455 144.3 512 142.8C569 141.3 626 152.7 682.8 163.5C739.7 174.3 796.3 184.7 853.2 171.3C910 158 967 121 1024 118C1081 115 1138 146 1194.8 151.3C1251.7 156.7 1308.3 136.3 1365.2 138.7C1422 141 1479 166 1507.5 178.5L1536 191L1536 0L1507.5 0C1479 0 1422 0 1365.2 0C1308.3 0 1251.7 0 1194.8 0C1138 0 1081 0 1024 0C967 0 910 0 853.2 0C796.3 0 739.7 0 682.8 0C626 0 569 0 512 0C455 0 398 0 341.2 0C284.3 0 227.7 0 170.8 0C114 0 57 0 28.5 0L0 0Z" fill="#db0033"></path><path d="M0 79L28.5 82C57 85 114 91 170.8 95.5C227.7 100 284.3 103 341.2 109C398 115 455 124 512 118.5C569 113 626 93 682.8 90C739.7 87 796.3 101 853.2 98.8C910 96.7 967 78.3 1024 70.7C1081 63 1138 66 1194.8 64.5C1251.7 63 1308.3 57 1365.2 67.8C1422 78.7 1479 106.3 1507.5 120.2L1536 134L1536 0L1507.5 0C1479 0 1422 0 1365.2 0C1308.3 0 1251.7 0 1194.8 0C1138 0 1081 0 1024 0C967 0 910 0 853.2 0C796.3 0 739.7 0 682.8 0C626 0 569 0 512 0C455 0 398 0 341.2 0C284.3 0 227.7 0 170.8 0C114 0 57 0 28.5 0L0 0Z" fill="#d6001e"></path><path d="M0 22L28.5 27.7C57 33.3 114 44.7 170.8 44.2C227.7 43.7 284.3 31.3 341.2 34C398 36.7 455 54.3 512 56.7C569 59 626 46 682.8 47.8C739.7 49.7 796.3 66.3 853.2 74.2C910 82 967 81 1024 73.7C1081 66.3 1138 52.7 1194.8 52.2C1251.7 51.7 1308.3 64.3 1365.2 71.8C1422 79.3 1479 81.7 1507.5 82.8L1536 84L1536 0L1507.5 0C1479 0 1422 0 1365.2 0C1308.3 0 1251.7 0 1194.8 0C1138 0 1081 0 1024 0C967 0 910 0 853.2 0C796.3 0 739.7 0 682.8 0C626 0 569 0 512 0C455 0 398 0 341.2 0C284.3 0 227.7 0 170.8 0C114 0 57 0 28.5 0L0 0Z" fill="#cf0000"></path></svg>