<svg width="201" height="201" viewBox="0 0 201 201" fill="none" xmlns="http://www.w3.org/2000/svg">
<path d="M183.454 43.7483C165.346 17.3306 134.947 0 100.5 0C44.9954 0 0 44.9953 0 100.5C0 108.575 0.952404 116.428 2.75092 123.952L53.9295 72.7732C58.8354 67.8672 66.7896 67.8672 71.6955 72.7732L113.062 114.14L183.454 43.7483Z" fill="#DC2626"/>
<path d="M195.399 67.3356L121.946 140.789C117.04 145.695 109.085 145.695 104.179 140.789L62.8125 99.4223L12.7343 149.501C29.9264 180.228 62.7874 201 100.5 201C156.005 201 201 156.005 201 100.5C201 88.879 199.028 77.7187 195.399 67.3356Z" fill="#DC2626"/>
</svg>
