<svg width="16" height="16" viewBox="0 0 16 16" fill="none" xmlns="http://www.w3.org/2000/svg">
<path d="M8.00016 1.33334C6.29109 1.33822 4.64916 1.99929 3.4135 3.18001V2.00001C3.4135 1.8232 3.34326 1.65363 3.21823 1.52861C3.09321 1.40358 2.92364 1.33334 2.74683 1.33334C2.57002 1.33334 2.40045 1.40358 2.27542 1.52861C2.1504 1.65363 2.08016 1.8232 2.08016 2.00001V5.00001C2.08016 5.17682 2.1504 5.34639 2.27542 5.47141C2.40045 5.59644 2.57002 5.66668 2.74683 5.66668H5.74683C5.92364 5.66668 6.09321 5.59644 6.21823 5.47141C6.34326 5.34639 6.4135 5.17682 6.4135 5.00001C6.4135 4.8232 6.34326 4.65363 6.21823 4.52861C6.09321 4.40358 5.92364 4.33334 5.74683 4.33334H4.14683C5.00401 3.43758 6.1465 2.86845 7.37785 2.72379C8.6092 2.57913 9.85249 2.86799 10.8939 3.54071C11.9354 4.21342 12.7099 5.22795 13.0844 6.40987C13.4588 7.59179 13.4098 8.86724 12.9458 10.0169C12.4817 11.1666 11.6316 12.1187 10.5416 12.7095C9.4516 13.3004 8.18982 13.493 6.9732 13.2542C5.75658 13.0155 4.66114 12.3604 3.87522 11.4015C3.08931 10.4426 2.66202 9.23982 2.66683 8.00001C2.66683 7.8232 2.59659 7.65363 2.47157 7.52861C2.34654 7.40358 2.17697 7.33334 2.00016 7.33334C1.82335 7.33334 1.65378 7.40358 1.52876 7.52861C1.40373 7.65363 1.3335 7.8232 1.3335 8.00001C1.3335 9.31855 1.72449 10.6075 2.45703 11.7038C3.18957 12.8001 4.23077 13.6546 5.44894 14.1592C6.66711 14.6638 8.00756 14.7958 9.30077 14.5386C10.594 14.2813 11.7819 13.6464 12.7142 12.7141C13.6466 11.7817 14.2815 10.5938 14.5387 9.30061C14.796 8.00741 14.6639 6.66696 14.1594 5.44879C13.6548 4.23061 12.8003 3.18942 11.704 2.45688C10.6076 1.72434 9.31871 1.33334 8.00016 1.33334ZM8.00016 5.33334C7.82335 5.33334 7.65378 5.40358 7.52876 5.52861C7.40373 5.65363 7.3335 5.8232 7.3335 6.00001V8.00001C7.3335 8.17682 7.40373 8.34639 7.52876 8.47141C7.65378 8.59644 7.82335 8.66668 8.00016 8.66668H9.3335C9.51031 8.66668 9.67988 8.59644 9.8049 8.47141C9.92992 8.34639 10.0002 8.17682 10.0002 8.00001C10.0002 7.8232 9.92992 7.65363 9.8049 7.52861C9.67988 7.40358 9.51031 7.33334 9.3335 7.33334H8.66683V6.00001C8.66683 5.8232 8.59659 5.65363 8.47157 5.52861C8.34654 5.40358 8.17697 5.33334 8.00016 5.33334Z" fill="#4A4A4A"/>
</svg>
