<svg width="74" height="74" viewBox="0 0 74 74" fill="none" xmlns="http://www.w3.org/2000/svg">
<path d="M0 4C0 1.79086 1.79086 0 4 0H70C72.2091 0 74 1.79086 74 4V70C74 72.2091 72.2091 74 70 74H4C1.79086 74 0 72.2091 0 70V4Z" fill="white"/>
<path d="M27.7502 30.8333H30.8335C31.6512 30.8333 32.4355 30.5085 33.0137 29.9302C33.592 29.352 33.9168 28.5677 33.9168 27.75C33.9168 26.9322 33.592 26.148 33.0137 25.5697C32.4355 24.9915 31.6512 24.6667 30.8335 24.6667H27.7502C26.9324 24.6667 26.1482 24.9915 25.5699 25.5697C24.9917 26.148 24.6668 26.9322 24.6668 27.75C24.6668 28.5677 24.9917 29.352 25.5699 29.9302C26.1482 30.5085 26.9324 30.8333 27.7502 30.8333ZM27.7502 37C26.9324 37 26.1482 37.3248 25.5699 37.9031C24.9917 38.4813 24.6668 39.2656 24.6668 40.0833C24.6668 40.9011 24.9917 41.6853 25.5699 42.2636C26.1482 42.8418 26.9324 43.1667 27.7502 43.1667H46.2502C47.0679 43.1667 47.8522 42.8418 48.4304 42.2636C49.0086 41.6853 49.3335 40.9011 49.3335 40.0833C49.3335 39.2656 49.0086 38.4813 48.4304 37.9031C47.8522 37.3248 47.0679 37 46.2502 37H27.7502ZM61.6668 27.565C61.6347 27.2817 61.5727 27.0027 61.4818 26.7325V26.455C61.3336 26.138 61.1358 25.8465 60.896 25.5917L42.396 7.09166C42.1411 6.85182 41.8497 6.65407 41.5327 6.50582C41.4406 6.49275 41.3472 6.49275 41.2552 6.50582C40.9419 6.32619 40.596 6.21088 40.2377 6.16666H21.5835C19.1302 6.16666 16.7775 7.14121 15.0428 8.87592C13.308 10.6106 12.3335 12.9634 12.3335 15.4167V58.5833C12.3335 61.0366 13.308 63.3894 15.0428 65.1241C16.7775 66.8588 19.1302 67.8333 21.5835 67.8333H52.4168C54.8701 67.8333 57.2229 66.8588 58.9576 65.1241C60.6923 63.3894 61.6668 61.0366 61.6668 58.5833V27.75C61.6668 27.75 61.6668 27.75 61.6668 27.565ZM43.1668 16.6808L51.1527 24.6667H46.2502C45.4324 24.6667 44.6482 24.3418 44.0699 23.7636C43.4917 23.1853 43.1668 22.4011 43.1668 21.5833V16.6808ZM55.5002 58.5833C55.5002 59.4011 55.1753 60.1853 54.5971 60.7636C54.0188 61.3418 53.2346 61.6667 52.4168 61.6667H21.5835C20.7657 61.6667 19.9815 61.3418 19.4033 60.7636C18.825 60.1853 18.5002 59.4011 18.5002 58.5833V15.4167C18.5002 14.5989 18.825 13.8146 19.4033 13.2364C19.9815 12.6582 20.7657 12.3333 21.5835 12.3333H37.0002V21.5833C37.0002 24.0366 37.9747 26.3894 39.7094 28.1241C41.4441 29.8588 43.7969 30.8333 46.2502 30.8333H55.5002V58.5833ZM46.2502 49.3333H27.7502C26.9324 49.3333 26.1482 49.6582 25.5699 50.2364C24.9917 50.8146 24.6668 51.5989 24.6668 52.4167C24.6668 53.2344 24.9917 54.0187 25.5699 54.5969C26.1482 55.1751 26.9324 55.5 27.7502 55.5H46.2502C47.0679 55.5 47.8522 55.1751 48.4304 54.5969C49.0086 54.0187 49.3335 53.2344 49.3335 52.4167C49.3335 51.5989 49.0086 50.8146 48.4304 50.2364C47.8522 49.6582 47.0679 49.3333 46.2502 49.3333Z" fill="#407BFF"/>
</svg>
